<?xml version="1.0" encoding="UTF-8"?>
<svg id="Layer_1" data-name="Layer 1" xmlns="http://www.w3.org/2000/svg" viewBox="0 0 579 579">
  <circle cx="399.99" cy="451.57" r="55.2" transform="translate(-202.15 415.1) rotate(-45)"/>
  <path d="M483.19,258.6l-69.71-41.69-92.81,55.51,34.89,20.87-31.8,19.02-29,17.35-92.82,55.52-29.01,17.35-81.17,48.55,92.82,55.51,81.18-48.55,29.01-17.35,92.82-55.52,29-17.35,66.61-39.83c31.91-19.08,31.91-50.31,0-69.39Z"/>
  <circle cx="179.01" cy="127.43" r="55.2" transform="translate(-18.1 30.32) rotate(-9.22)"/>
  <path d="M165.52,362.09l92.81-55.51-34.89-20.87,31.8-19.02,29-17.35,92.82-55.52,29.01-17.35,81.17-48.55-92.82-55.51-81.18,48.55-29.01,17.35-92.82,55.52-29,17.35-66.61,39.83c-31.91,19.08-31.91,50.31,0,69.39l69.71,41.69Z"/>
</svg>
